# xmcd
#
# Track frame offsets: 
#        150
#        11681
#        26935
#        41019
#        54520
#        72654
#        79216
#
# Disc length: 1140 seconds
#
# Revision: 0
# Processed by: cddbd v1.5.2PL0 Copyright (c) Steve Scherf et al.
# Submitted via: ExactAudioCopy v0.95b3
#
DISCID=5f047207
DTITLE=Dusty Springfield  - The Best Of Dusty - Volume One  FLAC
DYEAR=1900
DGENRE=
TTITLE0=You Don't Have To Say You Love Me
TTITLE1=I Close My Eyes And Count To Ten
TTITLE2=Lose Again
TTITLE3=This Will Be
TTITLE4=Baby Blue
TTITLE5=Brand New Me
TTITLE6=The Look Of Love
EXTD=
EXTT0=
EXTT1=
EXTT2=
EXTT3=
EXTT4=
EXTT5=
EXTT6=
PLAYORDER=
